{
  "title": "Generated piano example",
  "description": "Best-scoring balanced-preset continuation from the current best checkpoint.",
  "duration_sec": 36.668303,
  "tempo_bpm": 121.29,
  "track_name": "Acoustic Grand Piano",
  "note_count": 353,
  "pitch_range": {
    "min": 36,
    "max": 94
  },
  "meta": {
    "checkpoint": "/Users/hermesreisner/gpt2-piano-mps-12k/checkpoints/best",
    "preset": "balanced",
    "seed": 348,
    "prompt_index": 1,
    "prompt_position": "middle",
    "prompt_tokens": 768,
    "generated_tokens": 640,
    "heuristic_score": 4.999121,
    "note_count": 353,
    "notes_per_beat": 4.835616438356165,
    "pitch_span": 58,
    "unique_pitches": 44,
    "velocity_std": 13.843982696533203
  },
  "notes": [
    {
      "pitch": 56,
      "velocity": 71,
      "start": 0.556517,
      "end": 0.618352
    },
    {
      "pitch": 44,
      "velocity": 59,
      "start": 0.742023,
      "end": 0.803858
    },
    {
      "pitch": 56,
      "velocity": 71,
      "start": 0.742023,
      "end": 0.803858
    },
    {
      "pitch": 44,
      "velocity": 75,
      "start": 1.051199,
      "end": 1.113034
    },
    {
      "pitch": 56,
      "velocity": 79,
      "start": 1.051199,
      "end": 1.113034
    },
    {
      "pitch": 44,
      "velocity": 79,
      "start": 1.29854,
      "end": 1.360375
    },
    {
      "pitch": 56,
      "velocity": 83,
      "start": 1.29854,
      "end": 1.360375
    },
    {
      "pitch": 44,
      "velocity": 79,
      "start": 1.669552,
      "end": 1.731387
    },
    {
      "pitch": 56,
      "velocity": 91,
      "start": 1.669552,
      "end": 1.731387
    },
    {
      "pitch": 56,
      "velocity": 95,
      "start": 1.916893,
      "end": 1.978728
    },
    {
      "pitch": 44,
      "velocity": 83,
      "start": 1.978728,
      "end": 2.040563
    },
    {
      "pitch": 56,
      "velocity": 91,
      "start": 2.226069,
      "end": 2.287904
    },
    {
      "pitch": 44,
      "velocity": 79,
      "start": 2.287904,
      "end": 2.349739
    },
    {
      "pitch": 52,
      "velocity": 79,
      "start": 2.720751,
      "end": 3.339103
    },
    {
      "pitch": 55,
      "velocity": 87,
      "start": 2.720751,
      "end": 3.153598
    },
    {
      "pitch": 58,
      "velocity": 83,
      "start": 2.720751,
      "end": 3.64828
    },
    {
      "pitch": 61,
      "velocity": 79,
      "start": 2.720751,
      "end": 3.833785
    },
    {
      "pitch": 44,
      "velocity": 79,
      "start": 2.782586,
      "end": 3.277268
    },
    {
      "pitch": 56,
      "velocity": 51,
      "start": 3.833785,
      "end": 3.957456
    },
    {
      "pitch": 60,
      "velocity": 55,
      "start": 3.833785,
      "end": 4.019291
    },
    {
      "pitch": 44,
      "velocity": 39,
      "start": 3.895621,
      "end": 4.081126
    },
    {
      "pitch": 51,
      "velocity": 43,
      "start": 3.895621,
      "end": 4.081126
    },
    {
      "pitch": 63,
      "velocity": 47,
      "start": 4.452138,
      "end": 4.513973
    },
    {
      "pitch": 72,
      "velocity": 59,
      "start": 4.452138,
      "end": 4.513973
    },
    {
      "pitch": 56,
      "velocity": 43,
      "start": 4.513973,
      "end": 4.575808
    },
    {
      "pitch": 63,
      "velocity": 43,
      "start": 4.94682,
      "end": 5.503337
    },
    {
      "pitch": 67,
      "velocity": 51,
      "start": 4.94682,
      "end": 5.379667
    },
    {
      "pitch": 72,
      "velocity": 55,
      "start": 4.94682,
      "end": 6.369031
    },
    {
      "pitch": 55,
      "velocity": 39,
      "start": 5.008655,
      "end": 5.503337
    },
    {
      "pitch": 55,
      "velocity": 27,
      "start": 6.183525,
      "end": 6.801877
    },
    {
      "pitch": 62,
      "velocity": 27,
      "start": 6.183525,
      "end": 6.801877
    },
    {
      "pitch": 67,
      "velocity": 31,
      "start": 6.183525,
      "end": 6.801877
    },
    {
      "pitch": 71,
      "velocity": 35,
      "start": 6.183525,
      "end": 6.863713
    },
    {
      "pitch": 48,
      "velocity": 35,
      "start": 7.605736,
      "end": 7.667571
    },
    {
      "pitch": 51,
      "velocity": 43,
      "start": 7.605736,
      "end": 7.667571
    },
    {
      "pitch": 75,
      "velocity": 43,
      "start": 7.667571,
      "end": 7.729406
    },
    {
      "pitch": 74,
      "velocity": 47,
      "start": 7.791241,
      "end": 7.914912
    },
    {
      "pitch": 48,
      "velocity": 35,
      "start": 7.914912,
      "end": 7.976747
    },
    {
      "pitch": 50,
      "velocity": 51,
      "start": 7.914912,
      "end": 7.976747
    },
    {
      "pitch": 53,
      "velocity": 47,
      "start": 7.914912,
      "end": 7.976747
    },
    {
      "pitch": 75,
      "velocity": 51,
      "start": 7.914912,
      "end": 8.038582
    },
    {
      "pitch": 77,
      "velocity": 55,
      "start": 8.038582,
      "end": 8.162253
    },
    {
      "pitch": 48,
      "velocity": 39,
      "start": 8.162253,
      "end": 8.224088
    },
    {
      "pitch": 55,
      "velocity": 51,
      "start": 8.162253,
      "end": 8.224088
    },
    {
      "pitch": 79,
      "velocity": 51,
      "start": 8.162253,
      "end": 8.285923
    },
    {
      "pitch": 51,
      "velocity": 39,
      "start": 8.224088,
      "end": 8.285923
    },
    {
      "pitch": 77,
      "velocity": 59,
      "start": 8.285923,
      "end": 8.409594
    },
    {
      "pitch": 48,
      "velocity": 39,
      "start": 8.471429,
      "end": 8.71877
    },
    {
      "pitch": 51,
      "velocity": 43,
      "start": 8.471429,
      "end": 8.780606
    },
    {
      "pitch": 55,
      "velocity": 51,
      "start": 8.471429,
      "end": 8.780606
    },
    {
      "pitch": 75,
      "velocity": 63,
      "start": 8.471429,
      "end": 8.5951
    },
    {
      "pitch": 74,
      "velocity": 59,
      "start": 8.5951,
      "end": 8.71877
    },
    {
      "pitch": 75,
      "velocity": 63,
      "start": 8.71877,
      "end": 8.842441
    },
    {
      "pitch": 77,
      "velocity": 55,
      "start": 8.904276,
      "end": 9.027946
    },
    {
      "pitch": 47,
      "velocity": 55,
      "start": 9.027946,
      "end": 9.089782
    },
    {
      "pitch": 51,
      "velocity": 51,
      "start": 9.027946,
      "end": 9.089782
    },
    {
      "pitch": 55,
      "velocity": 59,
      "start": 9.027946,
      "end": 9.089782
    },
    {
      "pitch": 75,
      "velocity": 63,
      "start": 9.027946,
      "end": 9.151617
    },
    {
      "pitch": 74,
      "velocity": 59,
      "start": 9.151617,
      "end": 9.275287
    },
    {
      "pitch": 48,
      "velocity": 43,
      "start": 9.275287,
      "end": 9.584464
    },
    {
      "pitch": 51,
      "velocity": 47,
      "start": 9.337123,
      "end": 9.584464
    },
    {
      "pitch": 55,
      "velocity": 47,
      "start": 9.337123,
      "end": 9.584464
    },
    {
      "pitch": 72,
      "velocity": 59,
      "start": 9.337123,
      "end": 9.460793
    },
    {
      "pitch": 71,
      "velocity": 51,
      "start": 9.460793,
      "end": 9.584464
    },
    {
      "pitch": 72,
      "velocity": 63,
      "start": 9.584464,
      "end": 9.708134
    },
    {
      "pitch": 74,
      "velocity": 63,
      "start": 9.708134,
      "end": 9.831805
    },
    {
      "pitch": 43,
      "velocity": 47,
      "start": 9.831805,
      "end": 9.89364
    },
    {
      "pitch": 51,
      "velocity": 51,
      "start": 9.831805,
      "end": 9.89364
    },
    {
      "pitch": 55,
      "velocity": 59,
      "start": 9.831805,
      "end": 9.89364
    },
    {
      "pitch": 75,
      "velocity": 71,
      "start": 9.831805,
      "end": 9.89364
    },
    {
      "pitch": 77,
      "velocity": 63,
      "start": 9.955475,
      "end": 10.140981
    },
    {
      "pitch": 50,
      "velocity": 55,
      "start": 10.140981,
      "end": 10.202816
    },
    {
      "pitch": 53,
      "velocity": 59,
      "start": 10.140981,
      "end": 10.202816
    },
    {
      "pitch": 55,
      "velocity": 59,
      "start": 10.140981,
      "end": 10.202816
    },
    {
      "pitch": 79,
      "velocity": 75,
      "start": 10.140981,
      "end": 10.326487
    },
    {
      "pitch": 81,
      "velocity": 75,
      "start": 10.264651,
      "end": 10.388322
    },
    {
      "pitch": 50,
      "velocity": 35,
      "start": 10.388322,
      "end": 10.450157
    },
    {
      "pitch": 53,
      "velocity": 55,
      "start": 10.388322,
      "end": 10.450157
    },
    {
      "pitch": 57,
      "velocity": 55,
      "start": 10.388322,
      "end": 10.450157
    },
    {
      "pitch": 84,
      "velocity": 67,
      "start": 10.388322,
      "end": 10.511992
    },
    {
      "pitch": 83,
      "velocity": 67,
      "start": 10.573828,
      "end": 10.697498
    },
    {
      "pitch": 50,
      "velocity": 43,
      "start": 10.697498,
      "end": 10.759333
    },
    {
      "pitch": 53,
      "velocity": 43,
      "start": 10.697498,
      "end": 10.759333
    },
    {
      "pitch": 59,
      "velocity": 39,
      "start": 10.697498,
      "end": 10.759333
    },
    {
      "pitch": 81,
      "velocity": 47,
      "start": 10.697498,
      "end": 10.821169
    },
    {
      "pitch": 79,
      "velocity": 43,
      "start": 10.821169,
      "end": 10.944839
    },
    {
      "pitch": 63,
      "velocity": 39,
      "start": 12.49072,
      "end": 12.552556
    },
    {
      "pitch": 72,
      "velocity": 43,
      "start": 12.49072,
      "end": 12.552556
    },
    {
      "pitch": 80,
      "velocity": 43,
      "start": 12.49072,
      "end": 12.552556
    },
    {
      "pitch": 79,
      "velocity": 43,
      "start": 12.614391,
      "end": 12.738061
    },
    {
      "pitch": 60,
      "velocity": 47,
      "start": 12.738061,
      "end": 12.799897
    },
    {
      "pitch": 70,
      "velocity": 67,
      "start": 12.738061,
      "end": 12.799897
    },
    {
      "pitch": 80,
      "velocity": 51,
      "start": 12.738061,
      "end": 12.861732
    },
    {
      "pitch": 63,
      "velocity": 39,
      "start": 12.799897,
      "end": 12.861732
    },
    {
      "pitch": 82,
      "velocity": 63,
      "start": 12.861732,
      "end": 12.923567
    },
    {
      "pitch": 60,
      "velocity": 35,
      "start": 12.985402,
      "end": 13.047238
    },
    {
      "pitch": 63,
      "velocity": 43,
      "start": 12.985402,
      "end": 13.047238
    },
    {
      "pitch": 68,
      "velocity": 67,
      "start": 12.985402,
      "end": 13.047238
    },
    {
      "pitch": 84,
      "velocity": 63,
      "start": 12.985402,
      "end": 13.109073
    },
    {
      "pitch": 85,
      "velocity": 63,
      "start": 13.109073,
      "end": 13.232743
    },
    {
      "pitch": 68,
      "velocity": 59,
      "start": 13.232743,
      "end": 13.727425
    },
    {
      "pitch": 60,
      "velocity": 39,
      "start": 13.294579,
      "end": 13.54192
    },
    {
      "pitch": 63,
      "velocity": 39,
      "start": 13.294579,
      "end": 13.54192
    },
    {
      "pitch": 84,
      "velocity": 55,
      "start": 13.294579,
      "end": 13.418249
    },
    {
      "pitch": 85,
      "velocity": 59,
      "start": 13.418249,
      "end": 13.54192
    },
    {
      "pitch": 87,
      "velocity": 75,
      "start": 13.54192,
      "end": 13.603755
    },
    {
      "pitch": 89,
      "velocity": 75,
      "start": 13.66559,
      "end": 13.789261
    },
    {
      "pitch": 60,
      "velocity": 59,
      "start": 13.789261,
      "end": 13.851096
    },
    {
      "pitch": 63,
      "velocity": 55,
      "start": 13.789261,
      "end": 13.851096
    },
    {
      "pitch": 91,
      "velocity": 83,
      "start": 13.789261,
      "end": 13.974766
    },
    {
      "pitch": 92,
      "velocity": 87,
      "start": 13.912931,
      "end": 14.098437
    },
    {
      "pitch": 58,
      "velocity": 59,
      "start": 14.036602,
      "end": 14.345778
    },
    {
      "pitch": 63,
      "velocity": 47,
      "start": 14.036602,
      "end": 14.345778
    },
    {
      "pitch": 67,
      "velocity": 63,
      "start": 14.036602,
      "end": 14.283943
    },
    {
      "pitch": 94,
      "velocity": 87,
      "start": 14.036602,
      "end": 14.222107
    },
    {
      "pitch": 91,
      "velocity": 75,
      "start": 14.222107,
      "end": 14.345778
    },
    {
      "pitch": 87,
      "velocity": 67,
      "start": 14.345778,
      "end": 14.407613
    },
    {
      "pitch": 84,
      "velocity": 71,
      "start": 14.469448,
      "end": 14.531284
    },
    {
      "pitch": 58,
      "velocity": 55,
      "start": 14.593119,
      "end": 14.654954
    },
    {
      "pitch": 63,
      "velocity": 55,
      "start": 14.593119,
      "end": 14.654954
    },
    {
      "pitch": 82,
      "velocity": 71,
      "start": 14.593119,
      "end": 14.778625
    },
    {
      "pitch": 79,
      "velocity": 63,
      "start": 14.716789,
      "end": 14.902295
    },
    {
      "pitch": 60,
      "velocity": 51,
      "start": 14.902295,
      "end": 15.149636
    },
    {
      "pitch": 80,
      "velocity": 63,
      "start": 14.902295,
      "end": 15.025966
    },
    {
      "pitch": 53,
      "velocity": 51,
      "start": 14.96413,
      "end": 15.149636
    },
    {
      "pitch": 72,
      "velocity": 67,
      "start": 15.025966,
      "end": 15.149636
    },
    {
      "pitch": 55,
      "velocity": 55,
      "start": 15.211471,
      "end": 15.458812
    },
    {
      "pitch": 64,
      "velocity": 51,
      "start": 15.211471,
      "end": 15.273307
    },
    {
      "pitch": 70,
      "velocity": 67,
      "start": 15.211471,
      "end": 15.335142
    },
    {
      "pitch": 79,
      "velocity": 55,
      "start": 15.335142,
      "end": 15.520648
    },
    {
      "pitch": 77,
      "velocity": 55,
      "start": 15.458812,
      "end": 15.706153
    },
    {
      "pitch": 56,
      "velocity": 51,
      "start": 15.520648,
      "end": 15.644318
    },
    {
      "pitch": 60,
      "velocity": 35,
      "start": 15.520648,
      "end": 15.644318
    },
    {
      "pitch": 65,
      "velocity": 31,
      "start": 15.520648,
      "end": 15.644318
    },
    {
      "pitch": 68,
      "velocity": 51,
      "start": 15.644318,
      "end": 15.767989
    },
    {
      "pitch": 39,
      "velocity": 43,
      "start": 17.066529,
      "end": 17.252035
    },
    {
      "pitch": 48,
      "velocity": 47,
      "start": 17.066529,
      "end": 17.375705
    },
    {
      "pitch": 67,
      "velocity": 55,
      "start": 17.066529,
      "end": 17.31387
    },
    {
      "pitch": 55,
      "velocity": 39,
      "start": 17.190199,
      "end": 17.252035
    },
    {
      "pitch": 43,
      "velocity": 47,
      "start": 17.31387,
      "end": 17.375705
    },
    {
      "pitch": 50,
      "velocity": 47,
      "start": 17.31387,
      "end": 17.561211
    },
    {
      "pitch": 59,
      "velocity": 39,
      "start": 17.375705,
      "end": 17.43754
    },
    {
      "pitch": 65,
      "velocity": 47,
      "start": 17.43754,
      "end": 17.561211
    },
    {
      "pitch": 48,
      "velocity": 47,
      "start": 17.561211,
      "end": 17.623046
    },
    {
      "pitch": 51,
      "velocity": 51,
      "start": 17.623046,
      "end": 17.684881
    },
    {
      "pitch": 63,
      "velocity": 55,
      "start": 17.623046,
      "end": 17.746717
    },
    {
      "pitch": 60,
      "velocity": 47,
      "start": 17.746717,
      "end": 17.870387
    },
    {
      "pitch": 43,
      "velocity": 47,
      "start": 17.870387,
      "end": 18.179563
    },
    {
      "pitch": 55,
      "velocity": 51,
      "start": 17.870387,
      "end": 17.994058
    },
    {
      "pitch": 63,
      "velocity": 55,
      "start": 17.994058,
      "end": 18.117728
    },
    {
      "pitch": 60,
      "velocity": 43,
      "start": 18.179563,
      "end": 18.303234
    },
    {
      "pitch": 55,
      "velocity": 59,
      "start": 18.303234,
      "end": 18.426904
    },
    {
      "pitch": 43,
      "velocity": 71,
      "start": 18.426904,
      "end": 18.48874
    },
    {
      "pitch": 56,
      "velocity": 71,
      "start": 18.426904,
      "end": 18.674245
    },
    {
      "pitch": 65,
      "velocity": 63,
      "start": 18.550575,
      "end": 18.61241
    },
    {
      "pitch": 43,
      "velocity": 51,
      "start": 18.736081,
      "end": 18.983422
    },
    {
      "pitch": 50,
      "velocity": 59,
      "start": 18.736081,
      "end": 18.921586
    },
    {
      "pitch": 59,
      "velocity": 55,
      "start": 18.859751,
      "end": 18.983422
    },
    {
      "pitch": 55,
      "velocity": 47,
      "start": 19.045257,
      "end": 19.107092
    },
    {
      "pitch": 50,
      "velocity": 43,
      "start": 19.168927,
      "end": 19.230763
    },
    {
      "pitch": 36,
      "velocity": 63,
      "start": 19.292598,
      "end": 19.354433
    },
    {
      "pitch": 43,
      "velocity": 51,
      "start": 19.292598,
      "end": 19.354433
    },
    {
      "pitch": 48,
      "velocity": 55,
      "start": 19.292598,
      "end": 19.354433
    },
    {
      "pitch": 51,
      "velocity": 63,
      "start": 19.292598,
      "end": 19.416268
    },
    {
      "pitch": 60,
      "velocity": 55,
      "start": 19.416268,
      "end": 19.478104
    },
    {
      "pitch": 36,
      "velocity": 55,
      "start": 19.663609,
      "end": 19.725445
    },
    {
      "pitch": 43,
      "velocity": 51,
      "start": 19.663609,
      "end": 19.725445
    },
    {
      "pitch": 48,
      "velocity": 43,
      "start": 19.663609,
      "end": 19.725445
    },
    {
      "pitch": 51,
      "velocity": 19,
      "start": 19.663609,
      "end": 19.725445
    },
    {
      "pitch": 60,
      "velocity": 55,
      "start": 19.663609,
      "end": 19.725445
    },
    {
      "pitch": 55,
      "velocity": 67,
      "start": 20.220127,
      "end": 20.467468
    },
    {
      "pitch": 58,
      "velocity": 79,
      "start": 20.343797,
      "end": 20.467468
    },
    {
      "pitch": 63,
      "velocity": 83,
      "start": 20.467468,
      "end": 20.652973
    },
    {
      "pitch": 67,
      "velocity": 91,
      "start": 20.591138,
      "end": 20.838479
    },
    {
      "pitch": 43,
      "velocity": 79,
      "start": 20.714809,
      "end": 20.776644
    },
    {
      "pitch": 58,
      "velocity": 83,
      "start": 20.714809,
      "end": 20.776644
    },
    {
      "pitch": 70,
      "velocity": 91,
      "start": 20.714809,
      "end": 21.271326
    },
    {
      "pitch": 51,
      "velocity": 91,
      "start": 20.776644,
      "end": 20.838479
    },
    {
      "pitch": 55,
      "velocity": 83,
      "start": 20.776644,
      "end": 20.838479
    },
    {
      "pitch": 63,
      "velocity": 83,
      "start": 20.776644,
      "end": 20.900314
    },
    {
      "pitch": 67,
      "velocity": 79,
      "start": 21.271326,
      "end": 21.333161
    },
    {
      "pitch": 39,
      "velocity": 67,
      "start": 21.333161,
      "end": 21.394996
    },
    {
      "pitch": 51,
      "velocity": 87,
      "start": 21.333161,
      "end": 21.394996
    },
    {
      "pitch": 58,
      "velocity": 59,
      "start": 21.333161,
      "end": 21.394996
    },
    {
      "pitch": 79,
      "velocity": 67,
      "start": 21.704173,
      "end": 21.827843
    },
    {
      "pitch": 91,
      "velocity": 75,
      "start": 21.704173,
      "end": 21.827843
    },
    {
      "pitch": 75,
      "velocity": 63,
      "start": 21.827843,
      "end": 21.889678
    },
    {
      "pitch": 87,
      "velocity": 67,
      "start": 21.827843,
      "end": 21.951514
    },
    {
      "pitch": 79,
      "velocity": 59,
      "start": 21.951514,
      "end": 22.075184
    },
    {
      "pitch": 91,
      "velocity": 71,
      "start": 21.951514,
      "end": 22.075184
    },
    {
      "pitch": 75,
      "velocity": 63,
      "start": 22.075184,
      "end": 22.198855
    },
    {
      "pitch": 87,
      "velocity": 67,
      "start": 22.075184,
      "end": 22.137019
    },
    {
      "pitch": 79,
      "velocity": 67,
      "start": 22.198855,
      "end": 22.322525
    },
    {
      "pitch": 91,
      "velocity": 67,
      "start": 22.198855,
      "end": 22.322525
    },
    {
      "pitch": 75,
      "velocity": 51,
      "start": 22.322525,
      "end": 22.38436
    },
    {
      "pitch": 87,
      "velocity": 59,
      "start": 22.322525,
      "end": 22.38436
    },
    {
      "pitch": 72,
      "velocity": 63,
      "start": 22.446196,
      "end": 22.508031
    },
    {
      "pitch": 84,
      "velocity": 71,
      "start": 22.446196,
      "end": 22.508031
    },
    {
      "pitch": 75,
      "velocity": 55,
      "start": 22.569866,
      "end": 22.631701
    },
    {
      "pitch": 87,
      "velocity": 63,
      "start": 22.569866,
      "end": 22.693537
    },
    {
      "pitch": 72,
      "velocity": 55,
      "start": 22.693537,
      "end": 22.755372
    },
    {
      "pitch": 84,
      "velocity": 63,
      "start": 22.693537,
      "end": 22.817207
    },
    {
      "pitch": 68,
      "velocity": 55,
      "start": 22.817207,
      "end": 22.879042
    },
    {
      "pitch": 80,
      "velocity": 59,
      "start": 22.817207,
      "end": 22.879042
    },
    {
      "pitch": 72,
      "velocity": 59,
      "start": 22.940878,
      "end": 23.002713
    },
    {
      "pitch": 84,
      "velocity": 59,
      "start": 22.940878,
      "end": 23.002713
    },
    {
      "pitch": 68,
      "velocity": 51,
      "start": 23.064548,
      "end": 23.126383
    },
    {
      "pitch": 80,
      "velocity": 59,
      "start": 23.064548,
      "end": 23.188219
    },
    {
      "pitch": 74,
      "velocity": 63,
      "start": 23.188219,
      "end": 23.250054
    },
    {
      "pitch": 86,
      "velocity": 67,
      "start": 23.188219,
      "end": 23.311889
    },
    {
      "pitch": 72,
      "velocity": 55,
      "start": 23.311889,
      "end": 23.43556
    },
    {
      "pitch": 84,
      "velocity": 63,
      "start": 23.311889,
      "end": 23.497395
    },
    {
      "pitch": 71,
      "velocity": 55,
      "start": 23.43556,
      "end": 23.55923
    },
    {
      "pitch": 83,
      "velocity": 63,
      "start": 23.43556,
      "end": 23.55923
    },
    {
      "pitch": 67,
      "velocity": 43,
      "start": 23.621065,
      "end": 23.682901
    },
    {
      "pitch": 79,
      "velocity": 51,
      "start": 23.621065,
      "end": 23.682901
    },
    {
      "pitch": 51,
      "velocity": 55,
      "start": 24.177583,
      "end": 24.239418
    },
    {
      "pitch": 63,
      "velocity": 43,
      "start": 24.177583,
      "end": 24.239418
    },
    {
      "pitch": 68,
      "velocity": 47,
      "start": 24.177583,
      "end": 24.239418
    },
    {
      "pitch": 72,
      "velocity": 55,
      "start": 24.177583,
      "end": 24.239418
    },
    {
      "pitch": 60,
      "velocity": 23,
      "start": 24.301253,
      "end": 24.363088
    },
    {
      "pitch": 55,
      "velocity": 27,
      "start": 24.672265,
      "end": 25.166947
    },
    {
      "pitch": 63,
      "velocity": 43,
      "start": 24.672265,
      "end": 25.166947
    },
    {
      "pitch": 67,
      "velocity": 43,
      "start": 24.672265,
      "end": 25.228782
    },
    {
      "pitch": 72,
      "velocity": 51,
      "start": 24.672265,
      "end": 25.228782
    },
    {
      "pitch": 48,
      "velocity": 35,
      "start": 24.7341,
      "end": 25.228782
    },
    {
      "pitch": 51,
      "velocity": 35,
      "start": 24.7341,
      "end": 25.290617
    },
    {
      "pitch": 75,
      "velocity": 59,
      "start": 26.156311,
      "end": 26.403652
    },
    {
      "pitch": 58,
      "velocity": 43,
      "start": 26.465487,
      "end": 26.527322
    },
    {
      "pitch": 74,
      "velocity": 63,
      "start": 26.465487,
      "end": 26.527322
    },
    {
      "pitch": 70,
      "velocity": 67,
      "start": 26.589157,
      "end": 26.650993
    },
    {
      "pitch": 70,
      "velocity": 63,
      "start": 26.774663,
      "end": 27.33118
    },
    {
      "pitch": 46,
      "velocity": 43,
      "start": 26.836498,
      "end": 27.083839
    },
    {
      "pitch": 62,
      "velocity": 47,
      "start": 26.836498,
      "end": 27.145675
    },
    {
      "pitch": 65,
      "velocity": 39,
      "start": 26.836498,
      "end": 27.145675
    },
    {
      "pitch": 58,
      "velocity": 59,
      "start": 26.960169,
      "end": 27.022004
    },
    {
      "pitch": 58,
      "velocity": 59,
      "start": 27.022004,
      "end": 27.083839
    },
    {
      "pitch": 58,
      "velocity": 67,
      "start": 27.145675,
      "end": 27.20751
    },
    {
      "pitch": 58,
      "velocity": 63,
      "start": 27.269345,
      "end": 27.33118
    },
    {
      "pitch": 58,
      "velocity": 71,
      "start": 27.393016,
      "end": 27.454851
    },
    {
      "pitch": 58,
      "velocity": 79,
      "start": 27.578521,
      "end": 27.640357
    },
    {
      "pitch": 62,
      "velocity": 55,
      "start": 27.578521,
      "end": 27.887698
    },
    {
      "pitch": 65,
      "velocity": 59,
      "start": 27.578521,
      "end": 28.011368
    },
    {
      "pitch": 46,
      "velocity": 71,
      "start": 27.640357,
      "end": 27.825862
    },
    {
      "pitch": 58,
      "velocity": 63,
      "start": 27.702192,
      "end": 27.764027
    },
    {
      "pitch": 58,
      "velocity": 59,
      "start": 27.825862,
      "end": 27.887698
    },
    {
      "pitch": 58,
      "velocity": 63,
      "start": 27.949533,
      "end": 28.011368
    },
    {
      "pitch": 62,
      "velocity": 59,
      "start": 27.949533,
      "end": 28.320544
    },
    {
      "pitch": 63,
      "velocity": 59,
      "start": 27.949533,
      "end": 28.320544
    },
    {
      "pitch": 58,
      "velocity": 71,
      "start": 28.073203,
      "end": 28.135039
    },
    {
      "pitch": 58,
      "velocity": 67,
      "start": 28.196874,
      "end": 28.258709
    },
    {
      "pitch": 62,
      "velocity": 63,
      "start": 28.320544,
      "end": 28.38238
    },
    {
      "pitch": 46,
      "velocity": 51,
      "start": 28.38238,
      "end": 28.444215
    },
    {
      "pitch": 58,
      "velocity": 47,
      "start": 28.38238,
      "end": 28.444215
    },
    {
      "pitch": 58,
      "velocity": 43,
      "start": 28.50605,
      "end": 28.567885
    },
    {
      "pitch": 58,
      "velocity": 35,
      "start": 28.691556,
      "end": 29.433579
    },
    {
      "pitch": 70,
      "velocity": 67,
      "start": 28.691556,
      "end": 29.309908
    },
    {
      "pitch": 62,
      "velocity": 35,
      "start": 28.753391,
      "end": 29.371744
    },
    {
      "pitch": 46,
      "velocity": 47,
      "start": 28.877062,
      "end": 28.938897
    },
    {
      "pitch": 46,
      "velocity": 51,
      "start": 29.000732,
      "end": 29.062567
    },
    {
      "pitch": 46,
      "velocity": 63,
      "start": 29.124403,
      "end": 29.186238
    },
    {
      "pitch": 46,
      "velocity": 55,
      "start": 29.248073,
      "end": 29.309908
    },
    {
      "pitch": 46,
      "velocity": 43,
      "start": 29.433579,
      "end": 29.495414
    },
    {
      "pitch": 46,
      "velocity": 27,
      "start": 29.557249,
      "end": 29.742755
    },
    {
      "pitch": 70,
      "velocity": 39,
      "start": 29.866426,
      "end": 30.175602
    },
    {
      "pitch": 69,
      "velocity": 51,
      "start": 30.113767,
      "end": 30.175602
    },
    {
      "pitch": 53,
      "velocity": 47,
      "start": 30.175602,
      "end": 30.237437
    },
    {
      "pitch": 65,
      "velocity": 59,
      "start": 30.175602,
      "end": 30.237437
    },
    {
      "pitch": 63,
      "velocity": 63,
      "start": 30.237437,
      "end": 30.299272
    },
    {
      "pitch": 57,
      "velocity": 47,
      "start": 30.299272,
      "end": 30.361108
    },
    {
      "pitch": 53,
      "velocity": 43,
      "start": 30.361108,
      "end": 30.422943
    },
    {
      "pitch": 62,
      "velocity": 55,
      "start": 30.361108,
      "end": 30.484778
    },
    {
      "pitch": 57,
      "velocity": 59,
      "start": 30.484778,
      "end": 30.546613
    },
    {
      "pitch": 63,
      "velocity": 59,
      "start": 30.484778,
      "end": 30.546613
    },
    {
      "pitch": 53,
      "velocity": 51,
      "start": 30.608449,
      "end": 30.732119
    },
    {
      "pitch": 62,
      "velocity": 67,
      "start": 30.608449,
      "end": 30.793954
    },
    {
      "pitch": 57,
      "velocity": 59,
      "start": 30.793954,
      "end": 30.85579
    },
    {
      "pitch": 63,
      "velocity": 67,
      "start": 30.793954,
      "end": 30.85579
    },
    {
      "pitch": 53,
      "velocity": 43,
      "start": 30.917625,
      "end": 31.103131
    },
    {
      "pitch": 63,
      "velocity": 67,
      "start": 30.917625,
      "end": 31.164966
    },
    {
      "pitch": 57,
      "velocity": 51,
      "start": 31.041295,
      "end": 31.103131
    },
    {
      "pitch": 62,
      "velocity": 63,
      "start": 31.103131,
      "end": 31.164966
    },
    {
      "pitch": 53,
      "velocity": 47,
      "start": 31.164966,
      "end": 31.226801
    },
    {
      "pitch": 53,
      "velocity": 43,
      "start": 31.288636,
      "end": 31.412307
    },
    {
      "pitch": 62,
      "velocity": 67,
      "start": 31.288636,
      "end": 31.412307
    },
    {
      "pitch": 57,
      "velocity": 55,
      "start": 31.412307,
      "end": 31.474142
    },
    {
      "pitch": 63,
      "velocity": 67,
      "start": 31.412307,
      "end": 31.474142
    },
    {
      "pitch": 53,
      "velocity": 35,
      "start": 31.535977,
      "end": 31.721483
    },
    {
      "pitch": 63,
      "velocity": 71,
      "start": 31.535977,
      "end": 31.783318
    },
    {
      "pitch": 57,
      "velocity": 51,
      "start": 31.721483,
      "end": 31.783318
    },
    {
      "pitch": 62,
      "velocity": 55,
      "start": 31.721483,
      "end": 31.783318
    },
    {
      "pitch": 53,
      "velocity": 43,
      "start": 31.845154,
      "end": 32.092495
    },
    {
      "pitch": 62,
      "velocity": 51,
      "start": 31.845154,
      "end": 32.092495
    },
    {
      "pitch": 57,
      "velocity": 47,
      "start": 31.968824,
      "end": 32.030659
    },
    {
      "pitch": 63,
      "velocity": 59,
      "start": 32.030659,
      "end": 32.092495
    },
    {
      "pitch": 53,
      "velocity": 27,
      "start": 32.15433,
      "end": 32.339836
    },
    {
      "pitch": 63,
      "velocity": 67,
      "start": 32.15433,
      "end": 32.463506
    },
    {
      "pitch": 57,
      "velocity": 51,
      "start": 32.278,
      "end": 32.339836
    },
    {
      "pitch": 62,
      "velocity": 59,
      "start": 32.339836,
      "end": 32.401671
    },
    {
      "pitch": 53,
      "velocity": 51,
      "start": 32.401671,
      "end": 32.525341
    },
    {
      "pitch": 62,
      "velocity": 71,
      "start": 32.525341,
      "end": 32.649012
    },
    {
      "pitch": 53,
      "velocity": 59,
      "start": 32.587177,
      "end": 32.649012
    },
    {
      "pitch": 63,
      "velocity": 71,
      "start": 32.649012,
      "end": 32.710847
    },
    {
      "pitch": 57,
      "velocity": 15,
      "start": 32.710847,
      "end": 32.958188
    },
    {
      "pitch": 53,
      "velocity": 47,
      "start": 32.772682,
      "end": 32.958188
    },
    {
      "pitch": 63,
      "velocity": 67,
      "start": 32.772682,
      "end": 32.834518
    },
    {
      "pitch": 62,
      "velocity": 75,
      "start": 32.896353,
      "end": 32.958188
    },
    {
      "pitch": 46,
      "velocity": 59,
      "start": 33.081859,
      "end": 33.143694
    },
    {
      "pitch": 58,
      "velocity": 39,
      "start": 33.081859,
      "end": 33.143694
    },
    {
      "pitch": 62,
      "velocity": 55,
      "start": 33.081859,
      "end": 33.143694
    },
    {
      "pitch": 77,
      "velocity": 71,
      "start": 33.3292,
      "end": 33.576541
    },
    {
      "pitch": 60,
      "velocity": 59,
      "start": 33.576541,
      "end": 33.638376
    },
    {
      "pitch": 75,
      "velocity": 63,
      "start": 33.576541,
      "end": 33.638376
    },
    {
      "pitch": 74,
      "velocity": 71,
      "start": 33.638376,
      "end": 33.700211
    },
    {
      "pitch": 65,
      "velocity": 63,
      "start": 33.700211,
      "end": 33.762046
    },
    {
      "pitch": 60,
      "velocity": 59,
      "start": 33.762046,
      "end": 33.823882
    },
    {
      "pitch": 75,
      "velocity": 63,
      "start": 33.762046,
      "end": 33.885717
    },
    {
      "pitch": 65,
      "velocity": 59,
      "start": 33.885717,
      "end": 33.947552
    },
    {
      "pitch": 74,
      "velocity": 67,
      "start": 33.885717,
      "end": 34.071223
    },
    {
      "pitch": 60,
      "velocity": 55,
      "start": 34.009387,
      "end": 34.133058
    },
    {
      "pitch": 75,
      "velocity": 75,
      "start": 34.009387,
      "end": 34.071223
    },
    {
      "pitch": 65,
      "velocity": 55,
      "start": 34.194893,
      "end": 34.256728
    },
    {
      "pitch": 74,
      "velocity": 67,
      "start": 34.194893,
      "end": 34.442234
    },
    {
      "pitch": 58,
      "velocity": 47,
      "start": 34.318564,
      "end": 34.442234
    },
    {
      "pitch": 75,
      "velocity": 71,
      "start": 34.442234,
      "end": 34.504069
    },
    {
      "pitch": 65,
      "velocity": 51,
      "start": 34.504069,
      "end": 34.565905
    },
    {
      "pitch": 58,
      "velocity": 43,
      "start": 34.565905,
      "end": 34.689575
    },
    {
      "pitch": 75,
      "velocity": 75,
      "start": 34.565905,
      "end": 34.813246
    },
    {
      "pitch": 65,
      "velocity": 51,
      "start": 34.689575,
      "end": 34.75141
    },
    {
      "pitch": 74,
      "velocity": 71,
      "start": 34.75141,
      "end": 34.813246
    },
    {
      "pitch": 58,
      "velocity": 51,
      "start": 34.875081,
      "end": 34.998751
    },
    {
      "pitch": 74,
      "velocity": 67,
      "start": 34.875081,
      "end": 35.122422
    },
    {
      "pitch": 65,
      "velocity": 47,
      "start": 34.998751,
      "end": 35.060587
    },
    {
      "pitch": 75,
      "velocity": 67,
      "start": 35.060587,
      "end": 35.122422
    },
    {
      "pitch": 58,
      "velocity": 35,
      "start": 35.122422,
      "end": 35.246092
    },
    {
      "pitch": 75,
      "velocity": 67,
      "start": 35.246092,
      "end": 35.431598
    },
    {
      "pitch": 65,
      "velocity": 31,
      "start": 35.307928,
      "end": 35.431598
    },
    {
      "pitch": 58,
      "velocity": 47,
      "start": 35.431598,
      "end": 35.555269
    },
    {
      "pitch": 77,
      "velocity": 67,
      "start": 35.431598,
      "end": 35.493433
    },
    {
      "pitch": 65,
      "velocity": 43,
      "start": 35.555269,
      "end": 35.617104
    },
    {
      "pitch": 58,
      "velocity": 43,
      "start": 35.617104,
      "end": 35.864445
    },
    {
      "pitch": 77,
      "velocity": 67,
      "start": 35.678939,
      "end": 35.92628
    },
    {
      "pitch": 65,
      "velocity": 47,
      "start": 35.80261,
      "end": 35.864445
    },
    {
      "pitch": 74,
      "velocity": 59,
      "start": 35.80261,
      "end": 35.864445
    },
    {
      "pitch": 74,
      "velocity": 63,
      "start": 35.92628,
      "end": 36.111786
    },
    {
      "pitch": 58,
      "velocity": 43,
      "start": 35.988115,
      "end": 36.111786
    },
    {
      "pitch": 65,
      "velocity": 43,
      "start": 36.111786,
      "end": 36.173621
    },
    {
      "pitch": 75,
      "velocity": 67,
      "start": 36.111786,
      "end": 36.173621
    },
    {
      "pitch": 58,
      "velocity": 43,
      "start": 36.235456,
      "end": 36.359127
    },
    {
      "pitch": 77,
      "velocity": 75,
      "start": 36.235456,
      "end": 36.482797
    },
    {
      "pitch": 65,
      "velocity": 43,
      "start": 36.359127,
      "end": 36.482797
    },
    {
      "pitch": 79,
      "velocity": 79,
      "start": 36.420962,
      "end": 36.482797
    },
    {
      "pitch": 58,
      "velocity": 43,
      "start": 36.544633,
      "end": 36.668303
    }
  ]
}